# xmcd
#
# Track frame offsets:
#	150
#	22900
#	36925
#
# Disc length: 679 seconds
#
# Revision: 0
# Processed by: cddbd v1.5.2PL0 Copyright (c) Steve Scherf et al.
# Submitted via: audiograbber 1.83.01
#
DISCID=1902a503
DTITLE=Dingo - Levoton Tuhkimo (Remix '92) [CDM)
DYEAR=1992
DGENRE=Synthpop
TTITLE0=Levoton Tuhkimo (Remix)
TTITLE1=Nahkatakkinen Tyttö
TTITLE2=Sata Rohkeaa Laivaa
EXTD=TR.
EXTT0=
EXTT1=
EXTT2=
PLAYORDER=
